<svg width="23" height="23" viewBox="0 0 23 23" fill="none" xmlns="http://www.w3.org/2000/svg">
<path d="M1.71417 9.69214H22.0267C22.2339 9.69214 22.4326 9.60983 22.5791 9.46332C22.7256 9.3168 22.8079 9.11809 22.8079 8.91089V7.34839C22.8079 7.14119 22.7256 6.94247 22.5791 6.79596C22.4326 6.64945 22.2339 6.56714 22.0267 6.56714H1.71417C1.50697 6.56714 1.30826 6.64945 1.16175 6.79596C1.01523 6.94247 0.932922 7.14119 0.932922 7.34839L0.932922 8.91089C0.932922 9.11809 1.01523 9.3168 1.16175 9.46332C1.30826 9.60983 1.50697 9.69214 1.71417 9.69214ZM22.0267 19.0671H1.71417C1.50697 19.0671 1.30826 19.1494 1.16175 19.296C1.01523 19.4425 0.932922 19.6412 0.932922 19.8484L0.932922 21.4109C0.932922 21.6181 1.01523 21.8168 1.16175 21.9633C1.30826 22.1098 1.50697 22.1921 1.71417 22.1921H22.0267C22.2339 22.1921 22.4326 22.1098 22.5791 21.9633C22.7256 21.8168 22.8079 21.6181 22.8079 21.4109V19.8484C22.8079 19.6412 22.7256 19.4425 22.5791 19.296C22.4326 19.1494 22.2339 19.0671 22.0267 19.0671ZM22.1815 0.317139H9.37189C9.2896 0.317075 9.20811 0.333235 9.13207 0.364695C9.05604 0.396155 8.98695 0.442298 8.92877 0.500483C8.87058 0.558668 8.82444 0.627755 8.79298 0.70379C8.76152 0.779825 8.74536 0.861317 8.74542 0.943604V2.81567C8.74536 2.89796 8.76152 2.97945 8.79298 3.05549C8.82444 3.13152 8.87058 3.20061 8.92877 3.25879C8.98695 3.31698 9.05604 3.36312 9.13207 3.39458C9.20811 3.42604 9.2896 3.4422 9.37189 3.44214H22.1815C22.2637 3.4422 22.3452 3.42604 22.4213 3.39458C22.4973 3.36312 22.5664 3.31698 22.6246 3.25879C22.6828 3.20061 22.7289 3.13152 22.7604 3.05549C22.7918 2.97945 22.808 2.89796 22.8079 2.81567V0.943604C22.808 0.861317 22.7918 0.779825 22.7604 0.70379C22.7289 0.627755 22.6828 0.558668 22.6246 0.500483C22.5664 0.442298 22.4973 0.396155 22.4213 0.364695C22.3452 0.333235 22.2637 0.317075 22.1815 0.317139ZM22.1815 12.8171H9.37189C9.2896 12.8171 9.20811 12.8332 9.13207 12.8647C9.05604 12.8962 8.98695 12.9423 8.92877 13.0005C8.87058 13.0587 8.82444 13.1278 8.79298 13.2038C8.76152 13.2798 8.74536 13.3613 8.74542 13.4436V15.3157C8.74536 15.398 8.76152 15.4795 8.79298 15.5555C8.82444 15.6315 8.87058 15.7006 8.92877 15.7588C8.98695 15.817 9.05604 15.8631 9.13207 15.8946C9.20811 15.926 9.2896 15.9422 9.37189 15.9421H22.1815C22.2637 15.9422 22.3452 15.926 22.4213 15.8946C22.4973 15.8631 22.5664 15.817 22.6246 15.7588C22.6828 15.7006 22.7289 15.6315 22.7604 15.5555C22.7918 15.4795 22.808 15.398 22.8079 15.3157V13.4436C22.808 13.3613 22.7918 13.2798 22.7604 13.2038C22.7289 13.1278 22.6828 13.0587 22.6246 13.0005C22.5664 12.9423 22.4973 12.8962 22.4213 12.8647C22.3452 12.8332 22.2637 12.8171 22.1815 12.8171Z" fill="white"/>
</svg>
